Patient4_TMGait_0pt5_01_left_09_EMG.mot
version=1
nRows=40
nColumns=33
inDegrees=no
endheader
time	1LAddLong	2LGlutMax	3LGlutMed	4LIliopsoas	5LSemiMemb	6LBicFemLong	7LRecFem	8LVastMed	9LVastLat	10LGasMed	11LTibAnt	12lTibPost	13LPeroneusLong	14LSol	15LExtDigLong	16LFlexDigLong	17RAddLong	18RGlutMax	19RGlutMed	20RIliopsoas	21RSemiMemb	22RBicFemLong	23RRecFem	24RVastMed	25RVastLat	26RGasMed	27RTibAnt	28RTibPost	29RPeroneusLong	30RSol	31RExtDigLong	32RFlexDigLong
12.1	0.004425	0.26657	-0.074615	-0.018463	0.011597	-0.038605	0.092468	0	0.018158	0.001068	0.10147	0.005188	0.017395	-0.08728	0.21652	0.001373	-0.065918	-0.14343	0.069885	0.085297	0.066986	0.19272	-0.002594	-0.019836	0.092316	-0.015259	-0.1741	-0.000153	0.88303	0.034027	-0.001678	-0.016327
12.101	0.006256	0.28336	-0.059052	-0.006714	0.037689	-0.045929	0.095367	0.002747	0.027313	0.005951	0.15182	0.00061	-0.01358	-0.12436	0.17731	0.003815	-0.03952	-0.18509	-0.41214	0.12528	0.061493	0.028839	0.039368	-0.002136	0.054779	-0.016479	0.12634	-0.005951	0.84991	-0.00473	-0.007629	-0.014343
12.102	0.006866	0.28763	-0.037842	-0.008545	0.007019	-0.046387	0.103	0.002747	0.054474	-0.014496	-0.019836	0.003052	0.015564	-0.057831	-0.14816	-0.009308	-0.042419	-0.121	-0.62378	-0.043335	0.1181	-0.29526	-0.016327	-0.014191	0.071106	-0.008392	0.18585	-0.002594	0.23529	0.079041	-0.002899	-0.013428
12.103	0.00946	0.29114	-0.036621	-0.005188	0.010223	-0.04837	0.080872	-0.007172	0.059204	-0.03067	-0.030518	0.002747	0.068207	0.045776	-0.1648	0.001678	-0.024872	-0.08194	-0.45212	-0.17166	0.19424	-0.42175	0.14587	-0.10483	-0.053558	-0.002594	-0.074615	-0.000763	-0.69138	0.13886	-0.002747	-0.005493
12.104	0.001221	0.28641	-0.038452	-0.002441	0.006256	-0.021973	0.08728	0.001831	0.062714	-0.033264	-0.1091	0.001373	0.12116	0.078125	-0.24216	-0.007629	-0.019836	0.077667	-0.002899	-0.16342	0.18845	-0.21942	0.26764	-0.0383	-0.027771	-0.014191	-0.09613	0.003967	-1.4815	0.19516	-0.001831	-0.00885
12.105	0.009766	0.30777	-0.050812	0.006256	0.005646	-0.028687	0.10101	-0.00412	0.058289	-0.013733	-0.16144	-0.000305	0.073547	0.063019	-0.21423	-0.001526	-0.021667	0.095673	0.11749	0.004272	0.13016	-0.086975	0.41489	-0.024567	-0.053406	-0.02533	0.06546	0.004425	-2.2034	0.086975	-0.000916	-0.010681
12.106	0.007629	0.31158	-0.052795	0.005646	0.001221	-0.014801	0.094604	0.004578	0.073242	0.017548	-0.13092	0.002441	0.087585	-0.065918	-0.21271	0.003967	-0.010071	0.10254	0.10971	0.22964	0.097961	-0.040588	0.3447	0.015411	0.025635	-0.023499	0.15137	0.013275	-1.0677	0.061646	-0.003052	-0.007629
12.107	0.001678	0.31769	-0.029755	-0.003662	0.008545	-0.022888	0.09964	0.006409	0.075073	0.024261	-0.11688	0.001831	0.066986	-0.17029	-0.1297	0.004425	-0.016022	0.04837	0.17242	0.30456	0.082245	0.011292	0.18112	0.03891	0.034027	-0.007324	0.055084	0.00473	0.11307	-0.022888	-0.000305	-0.011597
12.108	0.005493	0.30868	-0.044708	0.005951	0.00946	-0.023041	0.069122	0.007629	0.092468	0.016327	-0.066833	0.006866	0.041504	-0.2153	-0.059662	-0.009003	-0.00412	0.08667	0.18646	0.19409	0.033264	0.046692	-0.070496	0.11063	0.11551	0.009308	-0.006409	-0.004883	0.98328	-0.083923	-0.004883	-0.006104
12.109	0.00946	0.30914	-0.047607	0.002747	0.003967	-0.013733	0.071106	0.008087	0.1268	-0.00351	-0.0383	0.002747	0.03891	-0.22446	-0.009613	-0.007629	0.003052	0.032959	0.000458	-0.019836	0.000305	0.066986	-0.17364	0.004272	0.074921	0.000763	-0.12817	-0.002441	1.2386	-0.092773	-0.001526	-0.007782
12.11	0.007172	0.31769	-0.047607	-0.03952	-0.005798	-0.02182	0.085144	0.007629	0.14008	-0.015564	0	0.004272	0.024872	-0.27481	0.040283	-0.005951	-0.003052	0.001526	-0.12741	-0.056	-0.012054	0.060425	-0.10132	-0.070496	0.049744	0.004425	-0.34927	0.001984	-0.075684	-0.056915	-0.002289	-0.004578
12.111	0.004883	0.29938	-0.060272	-0.004425	-0.006409	-0.015564	0.06897	0.000305	0.15533	-0.021057	-0.00824	-0.003052	0.023346	-0.32516	0.027771	-0.006256	0.01236	-0.096588	-0.00061	-0.082703	-0.021362	0.032043	0.040741	0.007324	0.13016	-0.000305	-0.32867	0.000458	-0.40756	-0.054321	-0.000305	-0.000916
12.112	0.001678	0.30579	-0.04776	-0.015411	0.003815	-0.021973	0.084381	0.006866	0.15533	-0.026703	0.012512	-0.000458	0.039825	-0.36041	0.062103	-0.008698	-0.003967	-0.15411	0.10941	-0.093536	-0.021362	0.037689	0.20432	0.15579	0.15335	0.001831	-0.2742	-0.004425	-0.18524	-0.098419	0.001678	-0.00351
12.113	0.007019	0.29221	-0.075073	-0.010376	0.022888	-0.039673	0.07019	0.004578	0.18433	-0.030823	0.031891	-0.003204	0.005951	-0.11551	0.066528	-0.00473	0.023193	-0.2298	0.074615	-0.093842	-0.037079	0.007477	0.24262	0.12192	0.15671	0.012054	0.13382	-0.000458	0.43304	-0.16846	-0.002899	0.001221
12.114	0.006409	0.3006	-0.065613	-0.019531	0.016785	-0.025024	0.059509	0.009155	0.18417	-0.028839	0.031433	-0.003052	0.005798	0.006866	0.045013	-0.001678	0.02182	-0.14435	0.15457	-0.022583	-0.040588	0.017242	0.068359	0.008698	0.14786	0.011902	0.62073	0.000916	0.10712	-0.20142	-0.00351	0.002289
12.115	0.011749	0.29999	-0.058441	-0.005188	0.003357	-0.039673	0.065918	0.00412	0.18127	-0.030975	0.022736	-0.004272	0.032043	0.066376	0.045471	-0.009918	0.018158	0.001984	0.31189	-0.036316	0.002899	0.10391	-0.057678	0.054779	0.10513	0.003662	0.57266	0.002136	-0.15152	-0.2179	-0.001221	-0.002747
12.116	0.009308	0.28793	-0.056152	0.00351	0.013275	-0.034637	0.071869	0.006561	0.1886	-0.040283	0.013428	-0.006866	0.016632	0.030365	0.064697	0.000305	0.046539	0.006104	0.37186	-0.026855	0.036469	0.063629	-0.036621	-0.027618	0.085144	0.001221	0.20096	-0.008087	-0.67612	-0.19531	-0.003815	-0.005035
12.117	0.004272	0.28366	-0.047455	0.005798	0.01297	-0.021362	0.069122	0.018768	0.18631	-0.06424	0.00351	-0.005493	0.028839	0.080566	0.084381	0.012512	0.036316	-0.057526	0.17166	0.006866	-0.058441	0.048218	-0.028992	-0.013275	0.087891	0.001526	0.17227	0.000305	-1.2798	-0.19577	-0.002441	-0.013123
12.118	0.005188	0.29556	-0.048981	-0.017242	0.016174	-0.034485	0.068512	0.00885	0.19302	-0.075531	0.014801	-0.005798	0.009003	0.18021	0.06485	0.007477	0.014954	-0.17761	0.20737	-0.013733	-0.14893	0.075226	-0.033112	0.023804	0.13275	0.001068	0.13321	-0.000153	-1.1391	-0.16724	-0.002747	-0.005035
12.119	0.001526	0.26306	-0.078125	0.005035	0.007782	-0.033722	0.059662	0.016632	0.18906	-0.030823	0.015259	-0.001373	0.015411	0.21835	0.050964	-0.003357	-0.01358	-0.23025	0.065002	-0.031128	-0.004272	0.047455	-0.032654	0.016174	0.079041	0.004883	0.030365	-0.000458	-0.50064	-0.093689	-0.003662	-0.005798
12.12	0.004272	0.28168	-0.11887	0.014801	0.009766	-0.019073	0.066833	0.011292	0.18433	-0.015259	0.029144	-0.002289	0.028992	0.14008	0.032806	0.006256	0.002441	-0.2385	0.26871	-0.021667	-0.05127	0.09201	-0.003662	0.001221	0.060425	0.007172	0.10513	-0.001984	0.77835	0.050201	-0.005951	-0.006409
12.121	0.016937	0.30762	-0.089722	-0.010071	0.006866	-0.037994	0.062866	0.006409	0.18341	0.003052	0.017242	0.003815	0.010529	0.033722	0.05249	-0.002136	0.002136	-0.18127	0.17212	0.005493	-0.029907	0.15411	0.029297	0.017853	0.003204	0.00061	0.059814	0.001831	0.9874	0.16312	-0.004578	-0.012054
12.122	0.00946	0.29617	-0.028229	-0.015869	0.003815	-0.016785	0.047607	0.010071	0.18478	0.007935	0.014496	-0.009613	0.00351	0.041504	0.13107	0.000305	-0.016327	-0.071411	-0.000153	0.002136	0.027008	0.068207	0.033875	0.062408	-0.052032	-0.001526	-0.36652	-0.004272	0.83237	0.30167	-0.003967	-0.010529
12.123	0.006714	0.3096	-0.02121	-0.015564	0.012054	-0.028076	0.054321	0.014954	0.17899	-0.011139	0.020447	-0.005951	0.003052	-0.036469	0.046997	0.006714	-0.026093	-0.038757	-0.11536	-0.05722	-0.087128	0.061951	0.039215	0.078125	-0.019226	-0.005493	-0.72357	-0.003204	0.23804	0.31204	-0.002747	-0.003815
12.124	0.001678	0.29175	-0.008545	-0.004425	0.02533	-0.03067	0.037384	0.010681	0.19012	-0.025482	0.017242	0.000763	0.000305	-0.058441	-0.031433	0.027313	-0.015259	-0.063782	-0.18677	-0.16419	-0.088806	0.097656	0.002289	0.068512	0.005341	0.003967	-0.73288	-0.003967	0.092163	0.17609	-0.005035	-0.007935
12.125	0.009308	0.27008	0.017548	-0.002899	0.016174	-0.020447	0.048828	0.010223	0.17456	-0.03479	0.011292	0.001831	0.014191	-0.017242	-0.019989	0.07019	-0.015564	-0.072937	0.24719	-0.1091	-0.037842	0.18799	0.019073	0.048523	0.018616	0.00946	-0.26428	-0.002899	0.025635	-0.19226	-0.002136	-0.004578
12.126	0.006866	0.25772	-0.013428	-0.008545	0.015259	-0.014496	0.046082	0.010986	0.17853	-0.039063	0.02182	-0.003204	0.009766	0.027466	-0.011444	-0.054626	-0.007172	-0.058899	0.018616	0.03952	0.000458	0.17761	0.02182	0.041656	0.041656	0.000763	0.16846	-0.002747	-0.054169	-0.54077	-0.005798	-0.007629
12.127	0.006409	0.26642	-0.028229	0.00061	0.017242	0.002441	0.048523	0.01297	0.15701	-0.032806	0.029144	0.001831	0.022125	0.032654	0.016174	-0.28427	0.013275	0.005646	0.25406	0.12756	0.003815	0.2272	0.096436	0.019531	0.025635	-0.02655	0.28885	0.000305	-0.092316	-0.54855	-0.001373	-0.014038
12.128	0.002747	0.27603	-0.014801	-0.012817	0.011139	-0.004425	0.021667	0.006866	0.159	-0.02121	0.034027	-0.00412	0.031128	0.045624	0.001373	0.18188	0.02121	0.098114	0.14175	0.19791	-0.007477	0.39307	0.18249	-0.00412	0.030823	-0.057678	0.22034	0.000153	-0.079346	-0.26016	-0.003967	-0.003662
12.129	0.009003	0.24735	-0.005493	0.006866	-0.002594	-0.005341	0.044556	0.007324	0.1622	-0.002289	0.016022	-0.003662	0.009766	0.045929	0.10727	0.097504	0.013885	-0.066833	0.20691	0.13458	-0.009766	0.39108	0.21194	0.001221	0.031586	-0.041046	0.13962	-0.001831	-0.00824	0.35156	-0.002136	0.000305
12.13	0.008545	0.22247	-0.025635	0.001678	0.014496	0.005035	0.034943	0.015869	0.15564	0.015564	0.012665	-0.006866	0.002136	0.069275	0.060883	0.037689	0.010834	-0.099182	0.53436	0.052643	0.019836	0.3125	0.215	0.003204	0.00885	-0.039978	0.094299	0.007019	0.043945	0.86624	-0.007935	0.000458
12.131	0.006714	0.21347	-0.033264	0.000763	0.043335	0.026703	0.04303	0.011902	0.15167	-0.000153	0.009613	0.001221	0.001984	0.013428	0.21759	0.014038	0.011139	-0.054626	0.62485	0.094604	-0.000458	0.18387	0.15381	0.065918	-0.008698	-0.001678	0.072937	0.000305	0.028229	0.93552	-0.003815	0.00412
12.132	0.009613	0.20996	-0.04364	-0.006104	0.007782	0.033875	0.024719	0.014496	0.15579	-0.007324	0.049133	0.001373	0.024261	-0.067291	-0.15991	0.005646	0.024109	0.059052	0.61279	0.057983	-0.012817	0.071716	0.15259	-0.00885	0.26016	0.024567	0.10376	0.00412	0.002594	0.84198	-0.003357	-0.000763
12.133	0.009613	0.18768	-0.058899	-0.003052	-0.059814	0.016022	0.03952	0.01297	0.15427	-0.015411	0.023041	0.000153	0.034637	-0.13489	-0.10284	-0.001984	0.02533	-0.067596	0.19638	0.045166	-0.044556	0.022583	0.22964	-0.061646	0.37628	0.031281	0.072479	-0.002747	-0.077057	0.38238	-0.003967	-0.007172
12.134	0.008087	0.18188	-0.048523	-0.025635	-0.046692	-0.040283	0.046844	0.007935	0.15549	-0.004578	0.00412	0.003815	0.014038	-0.12482	-0.15198	0.000305	0.031281	-0.019684	0.078278	-0.001068	-0.09964	-0.009613	0.24033	-0.046844	0.26794	0.021973	0.13962	0.00351	-0.068207	-0.072021	-0.007935	-0.007019
12.135	0.009918	0.20752	-0.059967	0.003662	-0.019531	-0.058594	0.049896	0.013275	0.15961	-0.00412	0.010376	0.005188	0.063934	-0.081482	-0.11353	-0.00061	0.026093	-0.018463	-0.052338	0.01297	-0.11108	-0.032959	0.14358	0.041199	0.22736	0.00946	0.15366	0.002289	-0.041351	-0.33569	-0.003662	-0.007629
12.136	0.00824	0.15366	-0.006561	-0.011139	0.04364	-0.052795	0.035248	0.005341	0.15686	-0.021973	0.001221	0.000305	0.039825	-0.14053	-0.070801	0.001984	0.012512	-0.045013	0.031586	-0.015869	-0.052338	0.013733	-0.18295	-0.012665	0.0354	0.010376	0.13809	0.003662	-0.04425	-0.4155	-0.002899	-0.013885
12.137	-0.002899	0.1564	-0.00351	-0.02243	0.04425	-0.019226	0.040894	0.006104	0.15198	-0.030212	0.012512	0.003357	-0.008545	-0.12024	-0.024872	0.003815	-0.020294	-0.062103	-0.044098	-0.030365	0.11612	0.079803	-0.29877	0.022125	-0.060425	0.010834	0.31876	0.004883	0.013885	-0.34485	-0.002899	-0.010681
12.138	0	0.19073	-0.005493	0.002747	0.027924	-0.019226	0.032654	0.01297	0.14389	-0.029602	0.020447	0.001373	-0.014038	-0.066528	0.008545	0.002289	0.010071	0.006409	0.14206	-0.036926	0.15137	0.019379	0.019684	0.13306	-0.36743	0.010986	0.44861	0.001221	0.034027	-0.22201	-0.004272	-0.009308
12.139	0.010986	0.17716	-0.051117	-0.029144	0.023804	-0.022736	0.047455	0.004578	0.1442	-0.02655	0.018005	-0.002899	-0.028687	-0.065765	0.011444	0.011292	0.037384	-0.013123	0.22858	-0.0383	0.11826	0.05127	0.1532	0.090942	-0.64331	0.0177	-0.43396	0.001068	0.066833	-0.22888	-0.002747	-0.00412
